<?xml version="1.0" encoding="utf-8"?>
<!-- Generator: Adobe Illustrator 16.0.4, SVG Export Plug-In . SVG Version: 6.00 Build 0)  -->
<!DOCTYPE svg PUBLIC "-//W3C//DTD SVG 1.1//EN" "http://www.w3.org/Graphics/SVG/1.1/DTD/svg11.dtd">
<svg version="1.1" id="Ebene_1" xmlns="http://www.w3.org/2000/svg" xmlns:xlink="http://www.w3.org/1999/xlink" x="0px" y="0px"
	 width="600px" height="200px" viewBox="0 0 600 200" enable-background="new 0 0 600 200" xml:space="preserve">
<g enable-background="new    ">
	<path fill="#FFFFFF" d="M13.125,163.75V36.25h21.25v42.5h42.5v-42.5h21.25v127.5h-21.25V100h-42.5v63.75H13.125z"/>
	<path fill="#FFFFFF" d="M119.375,163.75v-42.5c0-11.73,4.15-21.748,12.451-30.049c8.189-8.301,18.205-12.451,30.049-12.451
		c11.73,0,21.748,4.208,30.049,12.617c8.301,8.192,12.451,18.152,12.451,29.883v21.25h-63.75v21.25H119.375z M183.125,121.25
		c0-5.754-2.104-10.734-6.309-14.941c-4.208-4.205-9.188-6.309-14.941-6.309c-5.868,0-10.902,2.104-15.107,6.309
		c-4.096,4.207-6.143,9.188-6.143,14.941H183.125z"/>
	<path fill="#FFFFFF" d="M236.25,163.75V36.25h21.25v127.5H236.25z"/>
	<path fill="#FFFFFF" d="M289.375,163.75v-42.5c0-11.73,4.15-21.748,12.451-30.049c8.189-8.301,18.205-12.451,30.049-12.451
		c11.73,0,21.748,4.208,30.049,12.617c8.301,8.192,12.451,18.152,12.451,29.883v21.25h-63.75v21.25H289.375z M353.125,121.25
		c0-5.754-2.104-10.734-6.309-14.941c-4.207-4.205-9.188-6.309-14.941-6.309c-5.867,0-10.902,2.104-15.107,6.309
		c-4.096,4.207-6.143,9.188-6.143,14.941H353.125z"/>
	<path fill="#FFFFFF" d="M407.91,151.299c-8.191-8.189-12.285-18.205-12.285-30.049v-42.5h21.25v42.5
		c0,5.867,2.047,10.902,6.143,15.107c4.205,4.096,9.24,6.143,15.107,6.143c5.754,0,10.734-2.047,14.941-6.143
		c4.205-4.205,6.309-9.24,6.309-15.107v-42.5h21.25v85h-21.25v-5.479c-6.42,3.652-13.504,5.479-21.25,5.479
		C426.281,163.75,416.211,159.6,407.91,151.299z"/>
	<path fill="#FFFFFF" d="M565.625,163.75c0-5.754-2.104-10.734-6.309-14.941c-4.207-4.205-9.188-6.309-14.941-6.309h-42.5v-21.25
		c0-11.73,4.15-21.748,12.451-30.049c8.189-8.301,18.205-12.451,30.049-12.451h21.25V100h-21.25c-5.867,0-10.902,2.104-15.107,6.309
		c-4.096,4.207-6.143,9.188-6.143,14.941h21.25c11.73,0,21.748,4.207,30.049,12.617c8.301,8.191,12.451,18.152,12.451,29.883
		H565.625z"/>
</g>
</svg>
